<svg width="18" height="12" viewBox="0 0 18 12" fill="none" xmlns="http://www.w3.org/2000/svg">
<path d="M1.12753 7.89863C1.90388 4.17056 5.1493 1.52164 8.79996 1.52164C12.4495 1.52164 15.6949 4.17056 16.4724 7.89863C16.5032 8.04657 16.5915 8.17621 16.7179 8.25904C16.8442 8.34187 16.9984 8.37111 17.1463 8.34031C17.2942 8.30952 17.4239 8.22122 17.5067 8.09484C17.5895 7.96846 17.6188 7.81435 17.588 7.66641C16.7035 3.42609 13.0039 0.383301 8.79996 0.383301C4.59606 0.383301 0.896451 3.42609 0.0119591 7.66641C-0.0188354 7.81435 0.010398 7.96846 0.0932285 8.09484C0.176059 8.22122 0.305701 8.30952 0.453636 8.34031C0.60157 8.37111 0.755679 8.34187 0.882059 8.25904C1.00844 8.17621 1.09674 8.04657 1.12753 7.89863ZM8.78858 3.79833C9.84525 3.79833 10.8586 4.21809 11.6058 4.96527C12.353 5.71245 12.7728 6.72585 12.7728 7.78252C12.7728 8.8392 12.353 9.85259 11.6058 10.5998C10.8586 11.347 9.84525 11.7667 8.78858 11.7667C7.7319 11.7667 6.71851 11.347 5.97132 10.5998C5.22414 9.85259 4.80438 8.8392 4.80438 7.78252C4.80438 6.72585 5.22414 5.71245 5.97132 4.96527C6.71851 4.21809 7.7319 3.79833 8.78858 3.79833Z" fill="#1D1919"/>
</svg>
