<svg width="24" height="24" viewBox="0 0 24 24" fill="none" xmlns="http://www.w3.org/2000/svg">
<path d="M16.8638 5.42901L18.3089 6.72409C18.7882 7.15364 18.7882 7.85025 18.3089 8.2798L15.819 10.5112C15.5623 10.7413 15.5946 11.137 15.916 11.3252C16.1529 11.4636 16.4689 11.4153 16.6681 11.2368L19.3753 8.8107C20.2082 8.06422 20.2082 6.8544 19.3753 6.10953L17.5909 4.51039C16.8315 3.82987 15.6018 3.82987 14.8442 4.51039L9.56279 9.24346C8.8124 9.91594 8.8124 11.0051 9.56279 11.676L10.8679 12.8456C11.0977 13.0515 11.4675 13.0515 11.6973 12.8456L11.7601 12.7892C11.9899 12.5833 11.9899 12.2519 11.7601 12.046L10.6255 11.0292C10.2055 10.6528 10.2055 10.0414 10.6255 9.66497L15.1027 5.73147C15.4438 5.42579 15.7903 5.25848 16.2696 5.22952C16.4904 5.21665 16.7076 5.28905 16.8656 5.42901H16.8638Z" fill="black" fill-opacity="0.7"/>
<path d="M7.13619 18.4122L5.69106 16.9732C5.21175 16.496 5.21175 15.7219 5.69106 15.2447L8.18099 12.7653C8.4377 12.5097 8.40539 12.07 8.08405 11.8608C7.84708 11.7071 7.53113 11.7607 7.33186 11.9592L4.62472 14.6548C3.79176 15.4842 3.79176 16.8284 4.62472 17.6561L6.40914 19.4329C7.1685 20.189 8.3982 20.189 9.15577 19.4329L14.4372 14.1739C15.1876 13.4267 15.1876 12.2166 14.4372 11.4712L13.1321 10.1716C12.9023 9.9428 12.5325 9.9428 12.3027 10.1716L12.2399 10.2342C12.0101 10.463 12.0101 10.8312 12.2399 11.06L13.3745 12.1897C13.7945 12.608 13.7945 13.2873 13.3745 13.7056L8.89727 18.0761C8.55618 18.4158 8.20971 18.6017 7.7304 18.6339C7.50959 18.6482 7.29237 18.5677 7.13439 18.4122H7.13619Z" fill="black" fill-opacity="0.7"/>
</svg>
