<svg width="16" height="16" viewBox="0 0 16 16" fill="none" xmlns="http://www.w3.org/2000/svg">
<circle cx="8" cy="8" r="7.5" fill="#1A2980" stroke="white"/>
<path d="M5.23886 12H10.7478C11.2741 12 11.6374 11.4474 11.4501 10.9318C11.0062 9.70964 9.88837 8.90192 8.64092 8.90192H7.3277C6.07515 8.90192 4.95886 9.73034 4.54258 10.9688C4.37335 11.4723 4.72966 12 5.23886 12Z" fill="white"/>
<path d="M9.50863 5.56372C9.50863 6.42734 8.84083 7.12745 8.01705 7.12745C7.19327 7.12745 6.52546 6.42734 6.52546 5.56372C6.52546 4.7001 7.19327 4 8.01705 4C8.84083 4 9.50863 4.7001 9.50863 5.56372Z" fill="white"/>
<path d="M5.23886 12H10.7478C11.2741 12 11.6374 11.4474 11.4501 10.9318C11.0062 9.70964 9.88837 8.90192 8.64092 8.90192H7.3277C6.07515 8.90192 4.95886 9.73034 4.54258 10.9688C4.37335 11.4723 4.72966 12 5.23886 12Z" stroke="white" stroke-width="0.5"/>
<path d="M9.50863 5.56372C9.50863 6.42734 8.84083 7.12745 8.01705 7.12745C7.19327 7.12745 6.52546 6.42734 6.52546 5.56372C6.52546 4.7001 7.19327 4 8.01705 4C8.84083 4 9.50863 4.7001 9.50863 5.56372Z" stroke="white" stroke-width="0.5"/>
</svg>
