<svg width="26" height="24" viewBox="0 0 26 24" fill="none" xmlns="http://www.w3.org/2000/svg">
<path d="M2.23682 19.3452V11.354C2.23682 10.1543 2.716 9.00298 3.58735 8.17834C4.60877 7.21168 6.0259 5.9076 7.16997 4.99426C9.33409 3.26658 10.4142 1.85498 13.0001 1.85498C15.5859 1.85498 16.666 3.26658 18.8301 4.99426C19.9742 5.9076 21.3913 7.21168 22.4128 8.17834C22.6738 8.4254 22.8997 8.70178 23.088 9M2.23682 19.3452C2.23682 20.8313 3.44153 21.6378 4.92763 21.6378H9.76391M2.23682 19.3452C11.2284 20.6657 14.5673 14.5 16.0336 12.5C17.5 10.5 17.6604 9.0904 23.088 9M9.76391 21.6378V16.3006V14.3192C9.76391 13.072 10.775 12.061 12.0222 12.061H14.2472C15.1251 12.061 15.6425 13.0461 15.1443 13.7689V13.7689M9.76391 21.6378H16.3216H21.0725C22.5586 21.6378 23.7633 20.8313 23.7633 19.3452V11.354C23.7633 10.5137 23.5282 9.69717 23.088 9" stroke="#B8B8B8" stroke-width="3"/>
</svg>
