<svg width="24" height="24" viewBox="0 0 24 24" fill="none" xmlns="http://www.w3.org/2000/svg">
<path d="M23.8739 20.1632V11.3473C23.8739 10.8875 23.8101 10.4341 23.6865 10C19.661 8.36153 17.4341 11.9203 15.9586 14.278C15.7973 14.5358 15.645 14.7793 15.5002 15C15.3299 15.2598 15.0957 15.538 14.8026 15.8258C13.6651 16.9432 11.6417 18.2053 9.03162 19.0944C6.51814 19.9506 3.4606 20.4609 0.126221 20.1632C0.126221 21.8026 1.45525 23.1317 3.09469 23.1317H7.05264H16.9475H20.9055C22.5449 23.1317 23.8739 21.8026 23.8739 20.1632Z" fill="url(#paint0_linear_20_155)"/>
<path d="M0.126221 11.3473V20.1632C3.4606 20.4609 6.51814 19.9506 9.03162 19.0944V16.8044C9.03162 15.8119 9.52765 14.8851 10.3535 14.3345C11.3506 13.6698 12.6496 13.6698 13.6467 14.3345C14.1914 14.6976 14.5926 15.2245 14.8026 15.8258C15.0957 15.538 15.3299 15.2598 15.5002 15C15.645 14.7793 15.7973 14.5358 15.9586 14.278C17.4341 11.9203 19.661 8.36153 23.6865 10C23.4544 9.18475 23.0113 8.43765 22.3841 7.84401C21.2572 6.7776 19.6939 5.33896 18.4318 4.33137C17.9936 3.98154 17.5956 3.64346 17.2203 3.3246C15.551 1.90623 14.3292 0.868164 12.0001 0.868164C9.67098 0.868164 8.44921 1.90623 6.77982 3.3246C6.40453 3.64346 6.00661 3.98154 5.56841 4.33137C4.30628 5.33896 2.74293 6.7776 1.61611 7.84401C0.654849 8.75374 0.126221 10.0238 0.126221 11.3473Z" fill="black"/>
<path d="M0.126221 11.3473V20.1632C3.4606 20.4609 6.51814 19.9506 9.03162 19.0944V16.8044C9.03162 15.8119 9.52765 14.8851 10.3535 14.3345C11.3506 13.6698 12.6496 13.6698 13.6467 14.3345C14.1914 14.6976 14.5926 15.2245 14.8026 15.8258C15.0957 15.538 15.3299 15.2598 15.5002 15C15.645 14.7793 15.7973 14.5358 15.9586 14.278C17.4341 11.9203 19.661 8.36153 23.6865 10C23.4544 9.18475 23.0113 8.43765 22.3841 7.84401C21.2572 6.7776 19.6939 5.33896 18.4318 4.33137C17.9936 3.98154 17.5956 3.64346 17.2203 3.3246C15.551 1.90623 14.3292 0.868164 12.0001 0.868164C9.67098 0.868164 8.44921 1.90623 6.77982 3.3246C6.40453 3.64346 6.00661 3.98154 5.56841 4.33137C4.30628 5.33896 2.74293 6.7776 1.61611 7.84401C0.654849 8.75374 0.126221 10.0238 0.126221 11.3473Z" fill="#2741C3"/>
<path d="M0.126221 11.3473V20.1632C3.4606 20.4609 6.51814 19.9506 9.03162 19.0944V16.8044C9.03162 15.8119 9.52765 14.8851 10.3535 14.3345C11.3506 13.6698 12.6496 13.6698 13.6467 14.3345C14.1914 14.6976 14.5926 15.2245 14.8026 15.8258C15.0957 15.538 15.3299 15.2598 15.5002 15C15.645 14.7793 15.7973 14.5358 15.9586 14.278C17.4341 11.9203 19.661 8.36153 23.6865 10C23.4544 9.18475 23.0113 8.43765 22.3841 7.84401C21.2572 6.7776 19.6939 5.33896 18.4318 4.33137C17.9936 3.98154 17.5956 3.64346 17.2203 3.3246C15.551 1.90623 14.3292 0.868164 12.0001 0.868164C9.67098 0.868164 8.44921 1.90623 6.77982 3.3246C6.40453 3.64346 6.00661 3.98154 5.56841 4.33137C4.30628 5.33896 2.74293 6.7776 1.61611 7.84401C0.654849 8.75374 0.126221 10.0238 0.126221 11.3473Z" fill="black"/>
<defs>
<linearGradient id="paint0_linear_20_155" x1="0.447136" y1="23.1317" x2="24.0785" y2="22.5592" gradientUnits="userSpaceOnUse">
<stop stop-color="#1A2980"/>
<stop offset="0.501" stop-color="#122CAC"/>
<stop offset="1" stop-color="#6AF0FF"/>
</linearGradient>
</defs>
</svg>
