<svg width="24" height="25" viewBox="0 0 24 25" fill="none" xmlns="http://www.w3.org/2000/svg">
<path fill-rule="evenodd" clip-rule="evenodd" d="M20.8519 4.8707C19.0949 1.52229 15.393 2.7482e-06 11.9347 0C8.47647 -2.61939e-06 4.77459 1.52228 3.01762 4.87073C1.47954 7.802 1.65053 10.1083 1.78189 11.8801C1.79064 11.9982 1.79922 12.1139 1.8071 12.2272C1.86996 13.1309 1.88014 13.7794 1.72057 14.3991C1.57139 14.9785 1.24335 15.6371 0.440535 16.4382C0.0108634 16.8669 -0.118067 17.5124 0.113914 18.0733C0.345895 18.6342 0.893055 19 1.50004 19H5.56431C5.77687 20.6128 6.5043 21.9274 7.56595 22.8711C8.81175 23.9785 10.4304 24.5 12 24.5C13.5696 24.5 15.1883 23.9785 16.434 22.8711C17.4957 21.9274 18.2231 20.6128 18.4357 19H22.3694C23.0716 19 23.6798 18.5129 23.8332 17.8277C23.9866 17.1425 23.6441 16.4425 23.0089 16.1432C22.6267 15.963 22.473 15.7501 22.3703 15.3566C22.2339 14.8342 22.2314 14.1262 22.2633 13.0219L22.2704 12.7817C22.3325 10.7214 22.4189 7.85721 20.8519 4.8707ZM5.67413 6.26463C6.76298 4.18949 9.22706 3 11.9347 3C14.6424 3 17.1065 4.1895 18.1954 6.26461C19.392 8.54514 19.3289 10.7187 19.2676 12.8283L19.2645 12.9353C19.2366 13.9022 19.205 15.0131 19.4391 16H4.3412C4.45775 15.7184 4.55185 15.4344 4.62581 15.1472C4.9171 14.0159 4.86385 12.9389 4.79987 12.019C4.79238 11.9113 4.78462 11.8043 4.7769 11.6978C4.65333 9.99289 4.53979 8.42646 5.67413 6.26463ZM9.55905 20.6289C9.23854 20.344 8.95894 19.974 8.76764 19.5H15.2324C15.0411 19.974 14.7615 20.344 14.441 20.6289C13.8118 21.1882 12.9304 21.5 12 21.5C11.0696 21.5 10.1883 21.1882 9.55905 20.6289Z" fill="#B8B8B8"/>
</svg>
