<svg width="24" height="24" viewBox="0 0 24 24" fill="none" xmlns="http://www.w3.org/2000/svg">
<path d="M4 5.4786C5.51244 5.02568 5.37304 4.84085 6.38802 5.4786C7.403 6.11634 7.403 6.11634 8.63281 5.4786C9.86262 4.84085 9.81488 4.84087 10.8776 5.4786C11.9403 6.11632 11.9403 6.11632 13.1224 5.4786C14.3045 4.84087 14.2567 4.84087 15.3672 5.4786C16.4777 6.11632 16.4777 6.11632 17.612 5.4786C18.7463 4.84087 18.985 4.84027 20 5.47801M4 14.0674C5.51244 13.6145 5.37304 13.4297 6.38802 14.0674C7.403 14.7052 7.403 14.7052 8.63281 14.0674C9.86262 13.4297 9.81488 13.4297 10.8776 14.0674C11.9403 14.7052 11.9403 14.7052 13.1224 14.0674C14.3045 13.4297 14.2567 13.4297 15.3672 14.0674C16.4777 14.7052 16.4777 14.7052 17.612 14.0674C18.7463 13.4297 18.985 13.4291 20 14.0668M4 9.4997C5.51244 9.04678 5.37304 8.86196 6.38802 9.4997C7.403 10.1374 7.403 10.1374 8.63281 9.4997C9.86262 8.86196 9.81488 8.86197 10.8776 9.4997C11.9403 10.1374 11.9403 10.1374 13.1224 9.4997C14.3045 8.86197 14.2567 8.86197 15.3672 9.4997C16.4777 10.1374 16.4777 10.1374 17.612 9.4997C18.7463 8.86197 18.985 8.86137 20 9.49911M4 18.5217C5.51244 18.0688 5.37304 17.884 6.38802 18.5217C7.403 19.1594 7.403 19.1594 8.63281 18.5217C9.86262 17.884 9.81488 17.884 10.8776 18.5217C11.9403 19.1594 11.9403 19.1594 13.1224 18.5217C14.3045 17.884 14.2567 17.884 15.3672 18.5217C16.4777 19.1594 16.4777 19.1594 17.612 18.5217C18.7463 17.884 18.985 17.8834 20 18.5211" stroke="black" stroke-opacity="0.7" stroke-width="1.25" stroke-linecap="round" stroke-linejoin="round"/>
</svg>
