<svg width="12" height="12" viewBox="0 0 12 12" fill="none" xmlns="http://www.w3.org/2000/svg">
<path d="M5.6303 0.405468C5.82862 0.187791 6.17117 0.187791 6.3695 0.405468L7.02635 1.12641C7.15791 1.27081 7.36152 1.32537 7.54766 1.2661L8.47698 0.970167C8.75758 0.880815 9.05423 1.05209 9.11715 1.33977L9.32553 2.29255C9.36726 2.48338 9.51632 2.63244 9.70715 2.67418L10.6599 2.88255C10.9476 2.94547 11.1189 3.24213 11.0295 3.52272L10.7336 4.45204C10.6743 4.63818 10.7289 4.84179 10.8733 4.97335L11.5942 5.6302C11.8119 5.82853 11.8119 6.17108 11.5942 6.3694L10.8733 7.02625C10.7289 7.15782 10.6743 7.36143 10.7336 7.54757L11.0295 8.47689C11.1189 8.75748 10.9476 9.05414 10.6599 9.11705L9.70715 9.32543C9.51632 9.36717 9.36726 9.51622 9.32553 9.70706L9.11715 10.6598C9.05423 10.9475 8.75758 11.1188 8.47698 11.0294L7.54766 10.7335C7.36152 10.6742 7.15791 10.7288 7.02635 10.8732L6.3695 11.5941C6.17117 11.8118 5.82862 11.8118 5.6303 11.5941L4.97345 10.8732C4.84189 10.7288 4.63827 10.6742 4.45214 10.7335L3.52282 11.0294C3.24222 11.1188 2.94556 10.9475 2.88265 10.6598L2.67427 9.70706C2.63254 9.51622 2.48348 9.36717 2.29264 9.32543L1.33986 9.11705C1.05219 9.05414 0.880912 8.75748 0.970263 8.47689L1.26619 7.54757C1.32547 7.36143 1.27091 7.15782 1.12651 7.02625L0.405564 6.3694C0.187887 6.17108 0.187888 5.82853 0.405565 5.6302L1.12651 4.97335C1.27091 4.84179 1.32547 4.63818 1.26619 4.45204L0.970263 3.52272C0.880912 3.24213 1.05219 2.94547 1.33986 2.88255L2.29264 2.67418C2.48348 2.63244 2.63254 2.48338 2.67427 2.29255L2.88265 1.33977C2.94556 1.05209 3.24222 0.880815 3.52282 0.970167L4.45214 1.2661C4.63827 1.32537 4.84189 1.27081 4.97345 1.12641L5.6303 0.405468Z" fill="url(#paint0_linear_20_129)"/>
<path d="M3.97217 6.1523L5.20312 7.29563L7.99987 4.59912" stroke="#F3F4F6" stroke-linecap="round" stroke-linejoin="round"/>
<defs>
<linearGradient id="paint0_linear_20_129" x1="6.36286" y1="13.1494" x2="9.51005" y2="4.68393" gradientUnits="userSpaceOnUse">
<stop stop-color="#1A2980"/>
<stop offset="0.501" stop-color="#122CAC"/>
<stop offset="1" stop-color="#6AF0FF"/>
</linearGradient>
</defs>
</svg>
