<svg width="24" height="24" viewBox="0 0 24 24" fill="none" xmlns="http://www.w3.org/2000/svg">
<path d="M3 19.1998V11.7446C3 11.7446 3 11.7446 3 11.7446C3 11.7446 3 6.15003 3 4.79998C3 3.44993 3.45 2.99993 4.79988 3C6.14977 3.00007 17.85 3 19.2 3C20.55 3 21 3.45 21 4.79998C21 6.14997 21 17.8498 21 19.1998C21 20.5498 20.55 20.9998 19.0521 20.9999C17.5543 21 14.7767 20.9999 14.7763 20.9999C14.7763 20.9999 14.7763 20.9999 14.7763 20.9999H8.87441C8.87439 20.9999 8.8744 20.9999 8.87439 20.9999C8.87402 20.9999 5.5934 21 4.52173 20.9999C3.45 20.9998 3 20.5498 3 19.1998ZM3 19.1998C3 19.1998 7.20271 11.8749 12 14.8954C16.7973 17.916 16.1152 9.83129 21 9.74993M8.4 7.49995V8.39994H9.3V7.49995H8.4Z" stroke="#B8B8B8" stroke-width="2" stroke-linejoin="round"/>
</svg>
