<svg width="220" height="105" viewBox="0 0 220 105" fill="none" xmlns="http://www.w3.org/2000/svg">
<g clip-path="url(#clip0_17_15)">
<path d="M214.71 62.2617C211.343 67.4887 207.072 72.4859 202.209 76.3707C186.308 89.0693 175.34 96.0046 155.208 97.886C145.19 98.8224 128.934 95.2413 123.138 89.5829C114.751 81.3934 115.014 69.1374 115.094 64.739C115.271 54.9121 118.884 47.5114 121.021 43.8281C114.187 48.0903 107.312 51.9297 97.4197 62.6987C85.8877 75.2498 84.0053 82.0631 76.2496 89.6567C62.037 103.576 39.8943 105.817 23.373 96.68C8.89155 88.672 1.73092 76.3224 3.00398 59.9774C4.76625 37.3071 15.1768 19.4183 36.1065 9.14025C57.5541 -1.3904 78.4982 1.96942 98.4267 14.092C99.1791 14.5489 100.037 14.8412 100.987 15.2753C88.6141 15.2753 77.0821 14.0182 65.9363 15.5279C40.0201 19.0381 24.0768 41.3139 29.5953 64.5461C33.1742 79.6142 44.4744 84.5375 57.2423 75.5563C63.928 70.8542 69.2348 64.1488 74.8392 58.0591C81.7996 50.4938 87.7844 41.9524 95.3227 35.037C100.054 30.6981 113.477 18.4252 133.017 15.9791C154.836 13.2464 171.913 24.3219 177.38 28.2208C175.162 27.9825 172.287 27.8718 168.995 28.2946C148.706 30.9081 128.852 51.6913 133.037 64.5432C136.584 75.4371 156.295 77.2277 157.354 77.3128C175.306 78.7458 196.676 67.4632 198.55 51.4899C199.408 44.18 195.943 37.9229 193.643 34.5404C199.654 37.6703 206.119 40.1845 211.555 44.0949C217.583 48.4308 218.839 55.8571 214.71 62.2617Z" fill="url(#paint0_linear_17_15)"/>
<path d="M44.9972 105C36.8525 105 28.8937 102.98 21.9819 99.1572C14.2491 94.8808 8.4617 89.3899 4.78268 82.8348C1.03501 76.1606 -0.521278 68.3967 0.151015 59.756C1.0865 47.7384 4.37931 37.1879 9.9436 28.3995C15.7854 19.1742 24.159 11.836 34.8356 6.59478C43.7499 2.21907 52.9589 0 62.2051 0C77.4161 0 88.0755 5.88252 94.704 9.64813C97.4161 11.189 101.261 13.5783 105.575 17.0261C98.6777 17.815 93.1248 17.9143 89.3257 17.8575C85.2976 17.798 83.3666 17.6192 78.6691 17.6192C73.9716 17.6192 69.9379 17.8462 66.3247 18.3371C54.2348 19.9745 44.0761 25.9336 37.7165 35.1192C31.8747 43.5585 29.9779 53.777 32.381 63.8933C34.3893 72.3524 38.9981 77.202 45.0258 77.202C48.25 77.202 51.9004 75.8314 55.588 73.2378C60.5944 69.7191 64.9543 64.8212 69.1712 60.088C70.3298 58.7883 71.5285 57.4432 72.7243 56.1407C75.3248 53.3144 77.8538 50.2696 80.2969 47.3241C84.3621 42.4262 88.5675 37.361 93.3794 32.9484C98.0254 28.689 112.164 15.7236 132.659 13.1583C135.047 12.8604 137.485 12.7072 139.899 12.7072C157.857 12.7072 172.135 20.979 179.05 25.9109C181.164 27.7724 183.275 29.6339 185.389 31.4926C181.132 30.6498 175.614 30.1419 169.36 31.101C167.42 31.399 148.756 35.298 138.844 50.8201C135.74 55.681 134.644 60.244 135.757 63.6635C138.243 71.294 152.355 74.0579 157.582 74.4779C158.523 74.5545 159.496 74.5914 160.471 74.5914C172.218 74.5914 192.799 66.8218 195.705 51.1549C197.253 42.8178 193.205 35.3916 190.536 31.4926C192.927 32.097 196.415 33.1016 200.489 34.7361C205.735 36.8417 209.111 38.8252 213.234 41.7906C220.5 47.0176 222.096 56.0613 217.119 63.7826C213.374 69.5942 208.839 74.7077 204.002 78.5726C195.94 85.0114 189.04 90.0511 181.561 93.7202C173.757 97.5511 165.469 99.7701 155.474 100.704C154.332 100.812 153.096 100.865 151.806 100.865C141.393 100.865 127.071 97.4007 121.129 91.5976C111.903 82.5908 112.141 69.6226 112.229 64.7418V64.6822C112.312 60.1816 113.09 55.681 114.521 51.3422C110.172 54.3417 105.395 58.2208 99.5302 64.6027C93.697 70.9506 90.3927 75.7946 87.4776 80.0681C84.6425 84.2225 82.1965 87.8093 78.2543 91.6686C69.4801 100.261 57.6678 104.994 44.9915 104.994L44.9972 105Z" fill="#FCFAFA"/>
<path d="M214.71 62.2617C211.343 67.4887 207.072 72.4859 202.209 76.3707C186.308 89.0693 175.34 96.0046 155.208 97.886C145.19 98.8224 128.934 95.2413 123.138 89.5829C114.751 81.3934 115.014 69.1374 115.094 64.739C115.271 54.9121 118.884 47.5114 121.021 43.8281C114.187 48.0903 107.312 51.9297 97.4197 62.6987C85.8877 75.2498 84.0053 82.0631 76.2496 89.6567C62.037 103.576 39.8943 105.817 23.373 96.68C8.89155 88.672 1.73092 76.3224 3.00398 59.9774C4.76625 37.3071 15.1768 19.4183 36.1065 9.14025C57.5541 -1.3904 78.4982 1.96942 98.4267 14.092C99.1791 14.5489 100.037 14.8412 100.987 15.2753C88.6141 15.2753 77.0821 14.0182 65.9363 15.5279C40.0201 19.0381 24.0768 41.3139 29.5953 64.5461C33.1742 79.6142 44.4744 84.5375 57.2423 75.5563C63.928 70.8542 69.2348 64.1488 74.8392 58.0591C81.7996 50.4938 87.7844 41.9524 95.3227 35.037C100.054 30.6981 113.477 18.4252 133.017 15.9791C154.836 13.2464 171.913 24.3219 177.38 28.2208C175.162 27.9825 172.287 27.8718 168.995 28.2946C148.706 30.9081 128.852 51.6913 133.037 64.5432C136.584 75.4371 156.295 77.2277 157.354 77.3128C175.306 78.7458 196.676 67.4632 198.55 51.4899C199.408 44.18 195.943 37.9229 193.643 34.5404C199.654 37.6703 206.119 40.1845 211.555 44.0949C217.583 48.4308 218.839 55.8571 214.71 62.2617Z" fill="url(#paint1_linear_17_15)"/>
</g>
<defs>
<linearGradient id="paint0_linear_17_15" x1="5.75479" y1="102.164" x2="218.58" y2="91.7375" gradientUnits="userSpaceOnUse">
<stop stop-color="#1A2980"/>
<stop offset="0.501" stop-color="#122CAC"/>
<stop offset="1" stop-color="#6AF0FF"/>
</linearGradient>
<linearGradient id="paint1_linear_17_15" x1="59.1051" y1="109.922" x2="86.9798" y2="24.5977" gradientUnits="userSpaceOnUse">
<stop stop-color="#1A2980"/>
<stop offset="0.501" stop-color="#122CAC"/>
<stop offset="1" stop-color="#6AF0FF"/>
</linearGradient>
<clipPath id="clip0_17_15">
<rect width="220" height="105" fill="white"/>
</clipPath>
</defs>
</svg>
