<?xml version="1.0" encoding="UTF-8"?>
<svg id="background" xmlns="http://www.w3.org/2000/svg" xmlns:xlink="http://www.w3.org/1999/xlink" viewBox="0 0 769.01 370.02">
  <defs>
    <style>
      .cls-1 {
        fill: url(#linear-gradient);
      }

      .cls-1, .cls-2 {
        stroke-width: 0px;
      }

      .cls-2 {
        fill: #fcfafa;
      }
    </style>
    <linearGradient id="linear-gradient" x1="251.87" y1="413.49" x2="433.39" y2="99.1" gradientUnits="userSpaceOnUse">
      <stop offset="0" stop-color="#002855"/>
      <stop offset=".34" stop-color="#0c1f5a"/>
      <stop offset=".57" stop-color="#0d2c73"/>
      <stop offset=".72" stop-color="#122cac"/>
      <stop offset=".85" stop-color="#3d8cd4"/>
      <stop offset=".95" stop-color="#5dd3f3"/>
      <stop offset="1" stop-color="#6af0ff"/>
    </linearGradient>
  </defs>
  <path class="cls-1" d="M750.52,219.41c-11.77,18.42-26.7,36.03-43.7,49.72-55.58,44.75-93.92,69.19-164.29,75.82-35.02,3.3-91.84-9.32-112.1-29.26-29.32-28.86-28.4-72.05-28.12-87.55.62-34.63,13.25-60.71,20.72-73.69-23.89,15.02-47.92,28.55-82.5,66.5-40.31,44.23-46.89,68.24-74,95-49.68,49.05-127.08,56.95-184.83,24.75C31.08,312.48,6.05,268.96,10.5,211.36c6.16-79.89,42.55-142.93,115.71-179.15C201.18-4.9,274.39,6.94,344.05,49.66c2.63,1.61,5.63,2.64,8.95,4.17-43.25,0-83.56-4.43-122.52.89-90.59,12.37-146.32,90.87-127.03,172.74,12.51,53.1,52.01,70.45,96.64,38.8,23.37-16.57,41.92-40.2,61.51-61.66,24.33-26.66,45.25-56.76,71.6-81.13,16.54-15.29,63.46-58.54,131.76-67.16,76.27-9.63,135.96,29.4,155.07,43.14-7.75-.84-17.8-1.23-29.31.26-70.92,9.21-140.32,82.45-125.69,127.74,12.4,38.39,81.3,44.7,85,45,62.75,5.05,137.45-34.71,144-91,3-25.76-9.11-47.81-17.15-59.73,21.01,11.03,43.61,19.89,62.61,33.67,21.07,15.28,25.46,41.45,11.03,64.02Z"/>
  <path class="cls-2" d="M157.29,370.02c-28.47,0-56.29-7.12-80.45-20.59-27.03-15.07-47.26-34.42-60.12-57.52C3.62,268.39-1.82,241.03.53,210.58c3.27-42.35,14.78-79.53,34.23-110.5,20.42-32.51,49.69-58.37,87.01-76.84C152.93,7.82,185.12,0,217.44,0h0c53.17,0,90.43,20.73,113.6,34,9.48,5.43,22.92,13.85,38,26-24.11,2.78-43.52,3.13-56.8,2.93-14.08-.21-20.83-.84-37.25-.84s-30.52.8-43.15,2.53c-42.26,5.77-77.77,26.77-100,59.14-20.42,29.74-27.05,65.75-18.65,101.4,7.02,29.81,23.13,46.9,44.2,46.9,11.27,0,24.03-4.83,36.92-13.97,17.5-12.4,32.74-29.66,47.48-46.34,4.05-4.58,8.24-9.32,12.42-13.91,9.09-9.96,17.93-20.69,26.47-31.07,14.21-17.26,28.91-35.11,45.73-50.66,16.24-15.01,65.66-60.7,137.3-69.74,8.35-1.05,16.87-1.59,25.31-1.59,62.77,0,112.68,29.15,136.85,46.53,7.39,6.56,14.77,13.12,22.16,19.67-14.88-2.97-34.17-4.76-56.03-1.38-6.78,1.05-72.02,14.79-106.67,69.49-10.85,17.13-14.68,33.21-10.79,45.26,8.69,26.89,58.02,36.63,76.29,38.11,3.29.27,6.69.4,10.1.4,41.06,0,113-27.38,123.16-82.59,5.41-29.38-8.74-55.55-18.07-69.29,8.36,2.13,20.55,5.67,34.79,11.43,18.34,7.42,30.14,14.41,44.55,24.86,25.4,18.42,30.98,50.29,13.58,77.5-13.09,20.48-28.94,38.5-45.85,52.12-28.18,22.69-52.3,40.45-78.44,53.38-27.28,13.5-56.25,21.32-91.19,24.61-3.99.38-8.31.57-12.82.57-36.4,0-86.46-12.21-107.23-32.66-32.25-31.74-31.42-77.44-31.11-94.64v-.21c.29-15.86,3.01-31.72,8.01-47.01-15.2,10.57-31.9,24.24-52.4,46.73-20.39,22.37-31.94,39.44-42.13,54.5-9.91,14.64-18.46,27.28-32.24,40.88-30.67,30.28-71.96,46.96-116.27,46.96Z"/>
  <path class="cls-1" d="M750.52,219.41c-11.77,18.42-26.7,36.03-43.7,49.72-55.58,44.75-93.92,69.19-164.29,75.82-35.02,3.3-91.84-9.32-112.1-29.26-29.32-28.86-28.4-72.05-28.12-87.55.62-34.63,13.25-60.71,20.72-73.69-23.89,15.02-47.92,28.55-82.5,66.5-40.31,44.23-46.89,68.24-74,95-49.68,49.05-127.08,56.95-184.83,24.75C31.08,312.48,6.05,268.96,10.5,211.36c6.16-79.89,42.55-142.93,115.71-179.15C201.18-4.9,274.39,6.94,344.05,49.66c2.63,1.61,5.63,2.64,8.95,4.17-43.25,0-83.56-4.43-122.52.89-90.59,12.37-146.32,90.87-127.03,172.74,12.51,53.1,52.01,70.45,96.64,38.8,23.37-16.57,41.92-40.2,61.51-61.66,24.33-26.66,45.25-56.76,71.6-81.13,16.54-15.29,63.46-58.54,131.76-67.16,76.27-9.63,135.96,29.4,155.07,43.14-7.75-.84-17.8-1.23-29.31.26-70.92,9.21-140.32,82.45-125.69,127.74,12.4,38.39,81.3,44.7,85,45,62.75,5.05,137.45-34.71,144-91,3-25.76-9.11-47.81-17.15-59.73,21.01,11.03,43.61,19.89,62.61,33.67,21.07,15.28,25.46,41.45,11.03,64.02Z"/>
</svg>